<svg width="121" height="39" viewBox="0 0 121 39" fill="none" xmlns="http://www.w3.org/2000/svg">
<path d="M7.872 31C7.872 31.416 7.792 31.8267 7.632 32.232C7.48267 32.6267 7.232 32.984 6.88 33.304C6.53867 33.624 6.09067 33.88 5.536 34.072C4.98134 34.264 4.30934 34.36 3.52 34.36C3.15734 34.36 2.70934 34.3547 2.176 34.344C1.65334 34.3333 1.05067 34.328 0.368004 34.328V23.544C0.826671 23.5227 1.37067 23.5067 2 23.496C2.64 23.4747 3.29067 23.464 3.952 23.464C5.11467 23.464 6.00534 23.6933 6.624 24.152C7.25334 24.6107 7.568 25.272 7.568 26.136C7.568 26.68 7.424 27.1653 7.136 27.592C6.85867 28.0187 6.45867 28.3387 5.936 28.552V28.584C6.512 28.7013 6.976 28.984 7.328 29.432C7.69067 29.88 7.872 30.4027 7.872 31ZM5.36 26.472C5.36 26.0667 5.22667 25.7413 4.96 25.496C4.704 25.2507 4.256 25.128 3.616 25.128C3.392 25.128 3.184 25.1333 2.992 25.144C2.8 25.144 2.61867 25.1493 2.448 25.16V27.992C2.576 28.0027 2.704 28.008 2.832 28.008C2.97067 28.008 3.12534 28.008 3.296 28.008C4.01067 28.008 4.53334 27.8747 4.864 27.608C5.19467 27.3307 5.36 26.952 5.36 26.472ZM5.648 31.064C5.648 30.552 5.44534 30.1733 5.04 29.928C4.63467 29.6827 4.07467 29.56 3.36 29.56C3.28534 29.56 3.14134 29.56 2.928 29.56C2.72534 29.56 2.56534 29.5653 2.448 29.576V32.632C2.576 32.6427 2.752 32.6533 2.976 32.664C3.2 32.6747 3.408 32.68 3.6 32.68C4.28267 32.68 4.79467 32.5307 5.136 32.232C5.47734 31.9333 5.648 31.544 5.648 31.064Z" fill="#522D24"/>
<path d="M14.6253 34.328C14.6253 34.1467 14.6306 33.9173 14.6413 33.64C14.6519 33.3627 14.6786 33.1173 14.7213 32.904H14.7053C14.4599 33.3733 14.1133 33.7573 13.6653 34.056C13.2173 34.344 12.6626 34.488 12.0013 34.488C11.5533 34.488 11.1746 34.424 10.8653 34.296C10.5666 34.1573 10.3266 33.976 10.1453 33.752C9.96392 33.5173 9.83059 33.2507 9.74525 32.952C9.67059 32.6427 9.63325 32.312 9.63325 31.96V26.376H11.6653V31.464C11.6653 31.8693 11.7346 32.1893 11.8733 32.424C12.0119 32.6587 12.2733 32.776 12.6573 32.776C12.9133 32.776 13.1533 32.7067 13.3773 32.568C13.6013 32.4293 13.7933 32.248 13.9533 32.024C14.1239 31.7893 14.2573 31.5173 14.3533 31.208C14.4493 30.8987 14.4973 30.568 14.4973 30.216V26.376H16.5453V34.328H14.6253Z" fill="#522D24"/>
<path d="M23.7023 31.848C23.7023 32.2427 23.6169 32.6053 23.4463 32.936C23.2863 33.256 23.0516 33.5333 22.7423 33.768C22.4329 33.992 22.0596 34.168 21.6223 34.296C21.1956 34.424 20.7209 34.488 20.1983 34.488C19.8889 34.488 19.5796 34.472 19.2703 34.44C18.9609 34.408 18.6783 34.3547 18.4223 34.28L18.5663 32.568C18.8116 32.6747 19.0783 32.7547 19.3663 32.808C19.6649 32.8613 19.9636 32.888 20.2623 32.888C20.6463 32.888 20.9556 32.8133 21.1903 32.664C21.4249 32.504 21.5423 32.2907 21.5423 32.024C21.5423 31.7893 21.4623 31.608 21.3023 31.48C21.1423 31.352 20.9396 31.2453 20.6943 31.16C20.4596 31.064 20.2036 30.968 19.9263 30.872C19.6489 30.776 19.3876 30.648 19.1423 30.488C18.9076 30.3173 18.7103 30.0987 18.5503 29.832C18.3903 29.5547 18.3103 29.192 18.3103 28.744C18.3103 28.392 18.3743 28.0613 18.5023 27.752C18.6409 27.4427 18.8489 27.176 19.1263 26.952C19.4143 26.7173 19.7663 26.536 20.1823 26.408C20.6089 26.2693 21.1103 26.2 21.6863 26.2C21.9103 26.2 22.1503 26.216 22.4063 26.248C22.6623 26.2693 22.9023 26.3067 23.1263 26.36L23.0303 27.96C22.8169 27.896 22.5823 27.848 22.3263 27.816C22.0809 27.7733 21.8356 27.752 21.5903 27.752C21.1849 27.752 20.8863 27.8267 20.6943 27.976C20.5129 28.1253 20.4223 28.3227 20.4223 28.568C20.4223 28.792 20.5023 28.968 20.6623 29.096C20.8223 29.224 21.0249 29.336 21.2703 29.432C21.5156 29.528 21.7769 29.6293 22.0543 29.736C22.3423 29.832 22.6089 29.9653 22.8543 30.136C23.0996 30.3067 23.3023 30.5253 23.4623 30.792C23.6223 31.0587 23.7023 31.4107 23.7023 31.848Z" fill="#522D24"/>
<path d="M27.7341 23.96C27.7341 24.3013 27.6061 24.5947 27.3501 24.84C27.1048 25.0747 26.8061 25.192 26.4541 25.192C26.1021 25.192 25.8035 25.0747 25.5581 24.84C25.3128 24.5947 25.1901 24.3013 25.1901 23.96C25.1901 23.6187 25.3128 23.3253 25.5581 23.08C25.8035 22.8347 26.1021 22.712 26.4541 22.712C26.8061 22.712 27.1048 22.8347 27.3501 23.08C27.6061 23.3147 27.7341 23.608 27.7341 23.96ZM25.4301 34.328V26.376H27.4781V34.328H25.4301Z" fill="#522D24"/>
<path d="M34.5601 34.328V29.24C34.5601 28.8347 34.4908 28.5147 34.3521 28.28C34.2135 28.0453 33.9521 27.928 33.5681 27.928C33.3121 27.928 33.0721 27.9973 32.8481 28.136C32.6241 28.2747 32.4268 28.4613 32.2561 28.696C32.0961 28.92 31.9681 29.1867 31.8721 29.496C31.7761 29.8053 31.7281 30.136 31.7281 30.488V34.328H29.6801V26.376H31.6161C31.6161 26.5573 31.6055 26.7867 31.5841 27.064C31.5735 27.3413 31.5468 27.5867 31.5041 27.8H31.5201C31.7655 27.3307 32.1121 26.952 32.5601 26.664C33.0188 26.3653 33.5735 26.216 34.2241 26.216C34.6721 26.216 35.0455 26.2853 35.3441 26.424C35.6535 26.552 35.8988 26.7333 36.0801 26.968C36.2615 27.192 36.3895 27.4587 36.4641 27.768C36.5495 28.0667 36.5921 28.392 36.5921 28.744V34.328H34.5601Z" fill="#522D24"/>
<path d="M45.3328 29.592C45.3328 29.7413 45.3274 29.928 45.3168 30.152C45.3061 30.3653 45.2848 30.5627 45.2528 30.744H40.3408C40.3408 31.448 40.5114 31.9813 40.8528 32.344C41.2048 32.7067 41.7648 32.888 42.5328 32.888C43.3008 32.888 44.0688 32.7333 44.8368 32.424L45.0608 33.976C44.6234 34.136 44.1541 34.2587 43.6528 34.344C43.1621 34.44 42.6714 34.488 42.1808 34.488C40.9221 34.488 39.9514 34.1627 39.2688 33.512C38.5968 32.8613 38.2608 31.832 38.2608 30.424C38.2608 29.8267 38.3461 29.272 38.5168 28.76C38.6874 28.248 38.9328 27.8053 39.2528 27.432C39.5834 27.048 39.9781 26.7493 40.4368 26.536C40.9061 26.3227 41.4394 26.216 42.0368 26.216C42.6128 26.216 43.1088 26.3067 43.5248 26.488C43.9408 26.6587 44.2821 26.8987 44.5488 27.208C44.8154 27.5067 45.0128 27.864 45.1408 28.28C45.2688 28.6853 45.3328 29.1227 45.3328 29.592ZM43.3008 29.384C43.3221 28.84 43.2048 28.4293 42.9488 28.152C42.7034 27.864 42.3621 27.72 41.9248 27.72C41.4981 27.72 41.1408 27.8693 40.8528 28.168C40.5754 28.456 40.4101 28.8613 40.3568 29.384H43.3008Z" fill="#522D24"/>
<path d="M51.9835 31.848C51.9835 32.2427 51.8982 32.6053 51.7275 32.936C51.5675 33.256 51.3328 33.5333 51.0235 33.768C50.7142 33.992 50.3408 34.168 49.9035 34.296C49.4768 34.424 49.0022 34.488 48.4795 34.488C48.1702 34.488 47.8608 34.472 47.5515 34.44C47.2422 34.408 46.9595 34.3547 46.7035 34.28L46.8475 32.568C47.0928 32.6747 47.3595 32.7547 47.6475 32.808C47.9462 32.8613 48.2448 32.888 48.5435 32.888C48.9275 32.888 49.2368 32.8133 49.4715 32.664C49.7062 32.504 49.8235 32.2907 49.8235 32.024C49.8235 31.7893 49.7435 31.608 49.5835 31.48C49.4235 31.352 49.2208 31.2453 48.9755 31.16C48.7408 31.064 48.4848 30.968 48.2075 30.872C47.9302 30.776 47.6688 30.648 47.4235 30.488C47.1888 30.3173 46.9915 30.0987 46.8315 29.832C46.6715 29.5547 46.5915 29.192 46.5915 28.744C46.5915 28.392 46.6555 28.0613 46.7835 27.752C46.9222 27.4427 47.1302 27.176 47.4075 26.952C47.6955 26.7173 48.0475 26.536 48.4635 26.408C48.8902 26.2693 49.3915 26.2 49.9675 26.2C50.1915 26.2 50.4315 26.216 50.6875 26.248C50.9435 26.2693 51.1835 26.3067 51.4075 26.36L51.3115 27.96C51.0982 27.896 50.8635 27.848 50.6075 27.816C50.3622 27.7733 50.1168 27.752 49.8715 27.752C49.4662 27.752 49.1675 27.8267 48.9755 27.976C48.7942 28.1253 48.7035 28.3227 48.7035 28.568C48.7035 28.792 48.7835 28.968 48.9435 29.096C49.1035 29.224 49.3062 29.336 49.5515 29.432C49.7968 29.528 50.0582 29.6293 50.3355 29.736C50.6235 29.832 50.8902 29.9653 51.1355 30.136C51.3808 30.3067 51.5835 30.5253 51.7435 30.792C51.9035 31.0587 51.9835 31.4107 51.9835 31.848Z" fill="#522D24"/>
<path d="M58.6554 31.848C58.6554 32.2427 58.57 32.6053 58.3994 32.936C58.2394 33.256 58.0047 33.5333 57.6954 33.768C57.386 33.992 57.0127 34.168 56.5754 34.296C56.1487 34.424 55.674 34.488 55.1514 34.488C54.842 34.488 54.5327 34.472 54.2234 34.44C53.914 34.408 53.6314 34.3547 53.3754 34.28L53.5194 32.568C53.7647 32.6747 54.0314 32.7547 54.3194 32.808C54.618 32.8613 54.9167 32.888 55.2154 32.888C55.5994 32.888 55.9087 32.8133 56.1434 32.664C56.378 32.504 56.4954 32.2907 56.4954 32.024C56.4954 31.7893 56.4154 31.608 56.2554 31.48C56.0954 31.352 55.8927 31.2453 55.6474 31.16C55.4127 31.064 55.1567 30.968 54.8794 30.872C54.602 30.776 54.3407 30.648 54.0954 30.488C53.8607 30.3173 53.6634 30.0987 53.5034 29.832C53.3434 29.5547 53.2634 29.192 53.2634 28.744C53.2634 28.392 53.3274 28.0613 53.4554 27.752C53.594 27.4427 53.802 27.176 54.0794 26.952C54.3674 26.7173 54.7194 26.536 55.1354 26.408C55.562 26.2693 56.0634 26.2 56.6394 26.2C56.8634 26.2 57.1034 26.216 57.3594 26.248C57.6154 26.2693 57.8554 26.3067 58.0794 26.36L57.9834 27.96C57.77 27.896 57.5354 27.848 57.2794 27.816C57.034 27.7733 56.7887 27.752 56.5434 27.752C56.138 27.752 55.8394 27.8267 55.6474 27.976C55.466 28.1253 55.3754 28.3227 55.3754 28.568C55.3754 28.792 55.4554 28.968 55.6154 29.096C55.7754 29.224 55.978 29.336 56.2234 29.432C56.4687 29.528 56.73 29.6293 57.0074 29.736C57.2954 29.832 57.562 29.9653 57.8074 30.136C58.0527 30.3067 58.2554 30.5253 58.4154 30.792C58.5754 31.0587 58.6554 31.4107 58.6554 31.848Z" fill="#522D24"/>
<path d="M71.8095 31C71.8095 31.416 71.7295 31.8267 71.5695 32.232C71.4202 32.6267 71.1695 32.984 70.8175 33.304C70.4762 33.624 70.0282 33.88 69.4735 34.072C68.9188 34.264 68.2468 34.36 67.4575 34.36C67.0948 34.36 66.6468 34.3547 66.1135 34.344C65.5908 34.3333 64.9882 34.328 64.3055 34.328V23.544C64.7642 23.5227 65.3082 23.5067 65.9375 23.496C66.5775 23.4747 67.2282 23.464 67.8895 23.464C69.0522 23.464 69.9428 23.6933 70.5615 24.152C71.1908 24.6107 71.5055 25.272 71.5055 26.136C71.5055 26.68 71.3615 27.1653 71.0735 27.592C70.7962 28.0187 70.3962 28.3387 69.8735 28.552V28.584C70.4495 28.7013 70.9135 28.984 71.2655 29.432C71.6282 29.88 71.8095 30.4027 71.8095 31ZM69.2975 26.472C69.2975 26.0667 69.1642 25.7413 68.8975 25.496C68.6415 25.2507 68.1935 25.128 67.5535 25.128C67.3295 25.128 67.1215 25.1333 66.9295 25.144C66.7375 25.144 66.5562 25.1493 66.3855 25.16V27.992C66.5135 28.0027 66.6415 28.008 66.7695 28.008C66.9082 28.008 67.0628 28.008 67.2335 28.008C67.9482 28.008 68.4708 27.8747 68.8015 27.608C69.1322 27.3307 69.2975 26.952 69.2975 26.472ZM69.5855 31.064C69.5855 30.552 69.3828 30.1733 68.9775 29.928C68.5722 29.6827 68.0122 29.56 67.2975 29.56C67.2228 29.56 67.0788 29.56 66.8655 29.56C66.6628 29.56 66.5028 29.5653 66.3855 29.576V32.632C66.5135 32.6427 66.6895 32.6533 66.9135 32.664C67.1375 32.6747 67.3455 32.68 67.5375 32.68C68.2202 32.68 68.7322 32.5307 69.0735 32.232C69.4148 31.9333 69.5855 31.544 69.5855 31.064Z" fill="#522D24"/>
<path d="M77.8268 34.328C77.8268 34.0933 77.8321 33.864 77.8428 33.64C77.8534 33.416 77.8748 33.1973 77.9068 32.984L77.8908 32.968C77.6988 33.416 77.3734 33.784 76.9148 34.072C76.4668 34.3493 75.9441 34.488 75.3468 34.488C74.6214 34.488 74.0614 34.2747 73.6668 33.848C73.2721 33.4107 73.0748 32.8667 73.0748 32.216C73.0748 31.7467 73.1814 31.3413 73.3948 31C73.6188 30.648 73.9281 30.36 74.3228 30.136C74.7281 29.9013 75.2134 29.7307 75.7788 29.624C76.3441 29.5067 76.9734 29.448 77.6668 29.448V29.16C77.6668 28.68 77.5601 28.328 77.3468 28.104C77.1441 27.88 76.7761 27.768 76.2428 27.768C75.8801 27.768 75.4748 27.8213 75.0268 27.928C74.5894 28.0347 74.1948 28.1627 73.8428 28.312L73.5068 26.744C73.9121 26.584 74.3761 26.456 74.8988 26.36C75.4321 26.2533 75.9708 26.2 76.5148 26.2C77.1334 26.2 77.6454 26.264 78.0508 26.392C78.4668 26.5093 78.7974 26.6907 79.0428 26.936C79.2881 27.1707 79.4588 27.464 79.5548 27.816C79.6614 28.1573 79.7148 28.552 79.7148 29V32.28C79.7148 32.6 79.7201 32.9413 79.7308 33.304C79.7414 33.656 79.7574 33.9973 79.7788 34.328H77.8268ZM77.6668 30.792C77.1548 30.792 76.7281 30.824 76.3868 30.888C76.0454 30.9413 75.7734 31.0213 75.5708 31.128C75.3788 31.2347 75.2401 31.3627 75.1548 31.512C75.0801 31.6613 75.0428 31.8213 75.0428 31.992C75.0428 32.248 75.1281 32.4667 75.2988 32.648C75.4694 32.8293 75.7041 32.92 76.0028 32.92C76.2481 32.92 76.4721 32.8667 76.6748 32.76C76.8881 32.6427 77.0641 32.4987 77.2028 32.328C77.3521 32.1467 77.4641 31.944 77.5388 31.72C77.6241 31.4853 77.6668 31.2453 77.6668 31V30.792Z" fill="#522D24"/>
<path d="M86.8414 34.328V29.24C86.8414 28.8347 86.772 28.5147 86.6334 28.28C86.4947 28.0453 86.2334 27.928 85.8494 27.928C85.5934 27.928 85.3534 27.9973 85.1294 28.136C84.9054 28.2747 84.708 28.4613 84.5374 28.696C84.3774 28.92 84.2494 29.1867 84.1534 29.496C84.0574 29.8053 84.0094 30.136 84.0094 30.488V34.328H81.9614V26.376H83.8974C83.8974 26.5573 83.8867 26.7867 83.8654 27.064C83.8547 27.3413 83.828 27.5867 83.7854 27.8H83.8014C84.0467 27.3307 84.3934 26.952 84.8414 26.664C85.3 26.3653 85.8547 26.216 86.5054 26.216C86.9534 26.216 87.3267 26.2853 87.6254 26.424C87.9347 26.552 88.18 26.7333 88.3614 26.968C88.5427 27.192 88.6707 27.4587 88.7454 27.768C88.8307 28.0667 88.8734 28.392 88.8734 28.744V34.328H86.8414Z" fill="#522D24"/>
<path d="M95.614 34.328L93.15 30.392V34.328H91.102V22.648H93.15V29.688L95.47 26.376H97.966L95.182 30.008L98.174 34.328H95.614Z" fill="#522D24"/>
<path d="M101.781 23.96C101.781 24.3013 101.653 24.5947 101.397 24.84C101.152 25.0747 100.853 25.192 100.501 25.192C100.149 25.192 99.8503 25.0747 99.605 24.84C99.3597 24.5947 99.237 24.3013 99.237 23.96C99.237 23.6187 99.3597 23.3253 99.605 23.08C99.8503 22.8347 100.149 22.712 100.501 22.712C100.853 22.712 101.152 22.8347 101.397 23.08C101.653 23.3147 101.781 23.608 101.781 23.96ZM99.477 34.328V26.376H101.525V34.328H99.477Z" fill="#522D24"/>
<path d="M108.607 34.328V29.24C108.607 28.8347 108.538 28.5147 108.399 28.28C108.26 28.0453 107.999 27.928 107.615 27.928C107.359 27.928 107.119 27.9973 106.895 28.136C106.671 28.2747 106.474 28.4613 106.303 28.696C106.143 28.92 106.015 29.1867 105.919 29.496C105.823 29.8053 105.775 30.136 105.775 30.488V34.328H103.727V26.376H105.663C105.663 26.5573 105.652 26.7867 105.631 27.064C105.62 27.3413 105.594 27.5867 105.551 27.8H105.567C105.812 27.3307 106.159 26.952 106.607 26.664C107.066 26.3653 107.62 26.216 108.271 26.216C108.719 26.216 109.092 26.2853 109.391 26.424C109.7 26.552 109.946 26.7333 110.127 26.968C110.308 27.192 110.436 27.4587 110.511 27.768C110.596 28.0667 110.639 28.392 110.639 28.744V34.328H108.607Z" fill="#522D24"/>
<path d="M120.084 35.176C120.084 35.6027 119.977 36.008 119.764 36.392C119.561 36.776 119.268 37.112 118.884 37.4C118.51 37.688 118.052 37.9173 117.508 38.088C116.974 38.2587 116.377 38.344 115.716 38.344C114.649 38.344 113.812 38.1413 113.204 37.736C112.606 37.3413 112.308 36.7547 112.308 35.976C112.308 35.56 112.43 35.176 112.676 34.824C112.921 34.472 113.209 34.2053 113.54 34.024C113.294 33.9067 113.102 33.7467 112.964 33.544C112.825 33.3307 112.756 33.0853 112.756 32.808C112.756 32.4987 112.841 32.216 113.012 31.96C113.193 31.6933 113.422 31.5013 113.7 31.384C113.326 31.1813 113.033 30.8987 112.82 30.536C112.617 30.1733 112.516 29.7307 112.516 29.208C112.516 28.8133 112.59 28.4347 112.74 28.072C112.889 27.6987 113.108 27.3787 113.396 27.112C113.694 26.8347 114.062 26.616 114.5 26.456C114.937 26.2853 115.444 26.2 116.02 26.2C116.276 26.2 116.5 26.216 116.692 26.248C116.894 26.28 117.102 26.3227 117.316 26.376H120.02V27.976H118.932C119.198 28.2213 119.332 28.5573 119.332 28.984C119.332 29.4107 119.257 29.8 119.108 30.152C118.969 30.504 118.756 30.808 118.468 31.064C118.19 31.3093 117.838 31.5013 117.412 31.64C116.985 31.7787 116.489 31.848 115.924 31.848C115.71 31.848 115.502 31.8267 115.3 31.784C115.172 31.8373 115.076 31.912 115.012 32.008C114.948 32.104 114.916 32.2 114.916 32.296C114.916 32.4773 115.001 32.6 115.172 32.664C115.353 32.728 115.678 32.7707 116.148 32.792L117.38 32.84C118.244 32.872 118.91 33.08 119.38 33.464C119.849 33.8373 120.084 34.408 120.084 35.176ZM117.38 29.096C117.38 28.6693 117.257 28.328 117.012 28.072C116.777 27.816 116.42 27.688 115.94 27.688C115.47 27.688 115.108 27.8213 114.852 28.088C114.596 28.344 114.468 28.6747 114.468 29.08C114.468 29.5067 114.59 29.8427 114.836 30.088C115.092 30.3333 115.46 30.456 115.94 30.456C116.388 30.456 116.74 30.3387 116.996 30.104C117.252 29.8587 117.38 29.5227 117.38 29.096ZM118.052 35.448C118.052 35.16 117.956 34.92 117.764 34.728C117.572 34.5467 117.252 34.4453 116.804 34.424L115.428 34.376H115.06C114.825 34.5467 114.644 34.7333 114.516 34.936C114.388 35.1493 114.324 35.368 114.324 35.592C114.324 35.9653 114.478 36.2533 114.788 36.456C115.097 36.6693 115.508 36.776 116.02 36.776C116.692 36.776 117.198 36.648 117.54 36.392C117.881 36.136 118.052 35.8213 118.052 35.448Z" fill="#522D24"/>
<path d="M6.304 4.08H8.416V14.144C8.416 15.8293 8.03733 17.0667 7.28 17.856C6.53333 18.6453 5.48267 19.04 4.128 19.04C3.488 19.04 2.912 18.9547 2.4 18.784C1.888 18.6133 1.456 18.3413 1.104 17.968C0.752 17.6053 0.48 17.136 0.288 16.56C0.096 15.984 0 15.296 0 14.496C0 14.0267 0.032 13.552 0.096 13.072C0.16 12.5813 0.256 12.1013 0.384 11.632L2.56 11.232C2.41067 11.744 2.29867 12.2613 2.224 12.784C2.14933 13.3067 2.112 13.8133 2.112 14.304C2.112 14.912 2.17067 15.4133 2.288 15.808C2.416 16.2133 2.58133 16.5333 2.784 16.768C2.98667 17.0027 3.22133 17.1627 3.488 17.248C3.75467 17.344 4.02667 17.392 4.304 17.392C4.592 17.392 4.85867 17.3387 5.104 17.232C5.34933 17.136 5.55733 16.9653 5.728 16.72C5.90933 16.4853 6.048 16.1707 6.144 15.776C6.25067 15.3813 6.304 14.8907 6.304 14.304V4.08Z" fill="#522D24"/>
<path d="M11.2055 4.08H13.3175V13.696H14.9175V15.36H11.2055V4.08Z" fill="#522D24"/>
<path d="M14.8336 13.696H16.7376V15.36H14.8336V13.696Z" fill="#522D24"/>
<path d="M16.728 13.696H18.632V15.36H16.728V13.696Z" fill="#522D24"/>
<path d="M18.6224 13.696H20.5264V15.36H18.6224V13.696Z" fill="#522D24"/>
<path d="M20.5167 13.696H22.4207V15.36H20.5167V13.696Z" fill="#522D24"/>
<path d="M28.0591 15.36C27.1098 15.36 26.3845 15.2533 25.8831 15.04C25.3818 14.8267 25.0085 14.5227 24.7631 14.128C24.5605 14.544 24.2778 14.8533 23.9151 15.056C23.5525 15.2587 23.1311 15.36 22.6511 15.36H22.4111V13.696H22.7311C23.1151 13.696 23.4085 13.5573 23.6111 13.28C23.8245 13.0027 23.9311 12.5013 23.9311 11.776C23.9311 11.2 24.0165 10.6613 24.1871 10.16C24.3578 9.65867 24.6138 9.22133 24.9551 8.848C25.3071 8.47467 25.7338 8.18133 26.2351 7.968C26.7471 7.744 27.3391 7.632 28.0111 7.632C28.6511 7.632 29.2058 7.72267 29.6751 7.904C30.1445 8.07467 30.5285 8.32533 30.8271 8.656C31.1258 8.98667 31.3445 9.38667 31.4831 9.856C31.6325 10.3253 31.7071 10.8533 31.7071 11.44V13.696H33.0671V15.36H28.0591ZM29.6431 11.68C29.6431 10.8373 29.4938 10.2293 29.1951 9.856C28.8965 9.48267 28.4538 9.296 27.8671 9.296C27.2805 9.296 26.8218 9.50933 26.4911 9.936C26.1711 10.352 26.0111 10.9013 26.0111 11.584C26.0111 12.288 26.1765 12.816 26.5071 13.168C26.8485 13.52 27.4351 13.696 28.2671 13.696H29.6431V11.68Z" fill="#522D24"/>
<path d="M32.9774 13.696H34.8814V15.36H32.9774V13.696Z" fill="#522D24"/>
<path d="M34.8717 13.696H36.7757V15.36H34.8717V13.696Z" fill="#522D24"/>
<path d="M36.7661 13.696H38.6701V15.36H36.7661V13.696Z" fill="#522D24"/>
<path d="M38.6605 13.696H40.5645V15.36H38.6605V13.696Z" fill="#522D24"/>
<path d="M40.5549 13.696H43.0029C42.6509 13.4827 42.3522 13.168 42.1069 12.752C41.8722 12.336 41.7549 11.856 41.7549 11.312C41.7549 10.8213 41.8402 10.352 42.0109 9.904C42.1815 9.456 42.4375 9.06667 42.7789 8.736C43.1309 8.39467 43.5682 8.128 44.0909 7.936C44.6242 7.73333 45.2429 7.632 45.9469 7.632C46.2135 7.632 46.4642 7.648 46.6989 7.68C46.9442 7.712 47.1575 7.74933 47.3389 7.792C47.5522 7.83467 47.7495 7.88267 47.9309 7.936L47.5629 9.616C47.4242 9.552 47.2642 9.49867 47.0829 9.456C46.9335 9.41333 46.7575 9.376 46.5549 9.344C46.3522 9.30133 46.1335 9.28 45.8989 9.28C45.2909 9.28 44.8002 9.46667 44.4269 9.84C44.0642 10.2027 43.8829 10.6933 43.8829 11.312C43.8829 11.6533 43.9522 11.968 44.0909 12.256C44.2295 12.544 44.4482 12.7947 44.7469 13.008C45.0455 13.2213 45.4242 13.392 45.8829 13.52C46.3415 13.6373 46.8855 13.696 47.5149 13.696H48.7629V15.36H40.5549V13.696Z" fill="#522D24"/>
<path d="M49.7361 2.256C49.9281 2.256 50.1041 2.26133 50.2641 2.272C50.4348 2.28267 50.5735 2.29867 50.6801 2.32C50.5948 2.26667 50.5255 2.18133 50.4721 2.064C50.4188 1.936 50.3921 1.81333 50.3921 1.696C50.3921 1.472 50.4295 1.25867 50.5041 1.056C50.5895 0.853333 50.7175 0.672 50.8881 0.512C51.0695 0.352 51.3041 0.229334 51.5921 0.144C51.8801 0.048 52.2321 0 52.6481 0C52.8615 0 53.0588 0.0106665 53.2401 0.0319996C53.4215 0.0426668 53.5388 0.0586669 53.5921 0.0799999L53.4001 1.184C53.3575 1.17333 53.2615 1.15733 53.1121 1.136C52.9628 1.11467 52.7975 1.104 52.6161 1.104C52.3601 1.104 52.1628 1.15733 52.0241 1.264C51.8961 1.36 51.8321 1.488 51.8321 1.648C51.8321 1.82933 51.9121 1.97867 52.0721 2.096C52.2428 2.20267 52.5361 2.256 52.9521 2.256H53.8641V3.36H49.7361V2.256ZM50.8561 4.352H52.9681V15.36H50.8561V4.352Z" fill="#522D24"/>
<path d="M59.2225 13.712C59.4998 13.712 59.7665 13.7227 60.0225 13.744C60.2892 13.7547 60.5132 13.776 60.6945 13.808C60.5132 13.7227 60.3745 13.584 60.2785 13.392C60.1825 13.1893 60.1345 12.9653 60.1345 12.72C60.1345 12.3893 60.1985 12.064 60.3265 11.744C60.4545 11.4133 60.6572 11.1253 60.9345 10.88C61.2118 10.6347 61.5692 10.4373 62.0065 10.288C62.4438 10.128 62.9772 10.048 63.6065 10.048C63.9265 10.048 64.2252 10.064 64.5025 10.096C64.7798 10.1173 64.9612 10.1387 65.0465 10.16L64.7905 11.824C64.7158 11.8027 64.5558 11.776 64.3105 11.744C64.0652 11.712 63.7985 11.696 63.5105 11.696C63.0945 11.696 62.7798 11.7867 62.5665 11.968C62.3532 12.1387 62.2465 12.3627 62.2465 12.64C62.2465 12.9493 62.3798 13.2053 62.6465 13.408C62.9238 13.6107 63.3985 13.712 64.0705 13.712H65.4945V15.36H59.2225V13.712Z" fill="#522D24"/>
<path d="M67.9455 4.08H70.0575V13.696H71.6575V15.36H67.9455V4.08Z" fill="#522D24"/>
<path d="M71.5736 13.696H73.4776V15.36H71.5736V13.696Z" fill="#522D24"/>
<path d="M73.468 13.696H75.372V15.36H73.468V13.696Z" fill="#522D24"/>
<path d="M75.3624 13.696H77.2664V15.36H75.3624V13.696Z" fill="#522D24"/>
<path d="M77.2568 13.696H79.1608V15.36H77.2568V13.696Z" fill="#522D24"/>
<path d="M79.1511 13.696H81.0551V15.36H79.1511V13.696Z" fill="#522D24"/>
<path d="M86.6935 15.36C85.7442 15.36 85.0188 15.2533 84.5175 15.04C84.0162 14.8267 83.6428 14.5227 83.3975 14.128C83.1948 14.544 82.9122 14.8533 82.5495 15.056C82.1868 15.2587 81.7655 15.36 81.2855 15.36H81.0455V13.696H81.3655C81.7495 13.696 82.0428 13.5573 82.2455 13.28C82.4588 13.0027 82.5655 12.5013 82.5655 11.776C82.5655 11.2 82.6508 10.6613 82.8215 10.16C82.9922 9.65867 83.2482 9.22133 83.5895 8.848C83.9415 8.47467 84.3682 8.18133 84.8695 7.968C85.3815 7.744 85.9735 7.632 86.6455 7.632C87.2855 7.632 87.8402 7.72267 88.3095 7.904C88.7788 8.07467 89.1628 8.32533 89.4615 8.656C89.7602 8.98667 89.9788 9.38667 90.1175 9.856C90.2668 10.3253 90.3415 10.8533 90.3415 11.44V13.696H91.7015V15.36H86.6935ZM88.2775 11.68C88.2775 10.8373 88.1282 10.2293 87.8295 9.856C87.5308 9.48267 87.0882 9.296 86.5015 9.296C85.9148 9.296 85.4562 9.50933 85.1255 9.936C84.8055 10.352 84.6455 10.9013 84.6455 11.584C84.6455 12.288 84.8108 12.816 85.1415 13.168C85.4828 13.52 86.0695 13.696 86.9015 13.696H88.2775V11.68Z" fill="#522D24"/>
<path d="M91.6117 13.696H93.5157V15.36H91.6117V13.696Z" fill="#522D24"/>
<path d="M93.5061 13.696H95.4101V15.36H93.5061V13.696Z" fill="#522D24"/>
<path d="M95.4005 13.696H97.3045V15.36H95.4005V13.696Z" fill="#522D24"/>
<path d="M97.2949 13.696H99.1989V15.36H97.2949V13.696Z" fill="#522D24"/>
<path d="M99.1893 13.696H101.429V7.84H103.541V15.36H99.1893V13.696ZM102.485 6.496C102.176 6.496 101.915 6.38933 101.701 6.176C101.488 5.96267 101.381 5.70133 101.381 5.392C101.381 5.08267 101.488 4.82133 101.701 4.608C101.915 4.39467 102.176 4.288 102.485 4.288C102.795 4.288 103.056 4.39467 103.269 4.608C103.483 4.82133 103.589 5.08267 103.589 5.392C103.589 5.70133 103.483 5.96267 103.269 6.176C103.056 6.38933 102.795 6.496 102.485 6.496Z" fill="#522D24"/>
<path d="M109.809 12.496H107.664L105.377 4.256L107.472 3.968L109.809 12.496ZM106.033 15.36V13.696H110.977V4.08H113.089V15.36H106.033ZM106.192 18.48C106.342 18.48 106.48 18.4853 106.608 18.496C106.747 18.5067 106.87 18.5227 106.977 18.544C106.923 18.4907 106.875 18.416 106.832 18.32C106.79 18.2347 106.769 18.1333 106.769 18.016C106.769 17.8027 106.811 17.5947 106.896 17.392C106.982 17.2 107.115 17.024 107.297 16.864C107.478 16.7147 107.707 16.592 107.984 16.496C108.272 16.4107 108.609 16.368 108.993 16.368C109.206 16.368 109.403 16.3733 109.585 16.384C109.766 16.4053 109.883 16.4267 109.937 16.448L109.744 17.6C109.691 17.5893 109.59 17.5733 109.44 17.552C109.302 17.5307 109.147 17.52 108.977 17.52C108.753 17.52 108.577 17.5627 108.449 17.648C108.331 17.7333 108.272 17.8453 108.272 17.984C108.272 18.144 108.347 18.2667 108.496 18.352C108.646 18.4373 108.907 18.48 109.281 18.48H110.225V19.648H106.192V18.48Z" fill="#522D24"/>
<path d="M115.947 4.08H118.059V15.36H115.947V4.08Z" fill="#522D24"/>
</svg>
