<svg width="85" height="28" viewBox="0 0 85 28" fill="none" xmlns="http://www.w3.org/2000/svg">
<path d="M5.57213 21.9431C5.57213 22.2375 5.5155 22.5282 5.40225 22.8151C5.29655 23.0945 5.11911 23.3474 4.86995 23.5739C4.62834 23.8004 4.31123 23.9816 3.91862 24.1176C3.526 24.2535 3.05033 24.3214 2.49161 24.3214C2.2349 24.3214 1.91779 24.3176 1.54027 24.3101C1.17031 24.3025 0.743717 24.2988 0.260498 24.2988V16.6654C0.585161 16.6503 0.970226 16.639 1.41569 16.6314C1.86871 16.6163 2.32928 16.6088 2.7974 16.6088C3.62038 16.6088 4.25083 16.7711 4.68875 17.0958C5.13421 17.4204 5.35695 17.8886 5.35695 18.5001C5.35695 18.8852 5.25502 19.2287 5.05116 19.5308C4.85485 19.8328 4.57172 20.0593 4.20175 20.2103V20.2329C4.60947 20.316 4.93791 20.5161 5.18707 20.8332C5.44378 21.1503 5.57213 21.5203 5.57213 21.9431ZM3.79404 18.738C3.79404 18.4511 3.69966 18.2208 3.5109 18.0471C3.32969 17.8735 3.01258 17.7866 2.55956 17.7866C2.40101 17.7866 2.25378 17.7904 2.11787 17.798C1.98197 17.798 1.85361 17.8017 1.73281 17.8093V19.8139C1.82341 19.8214 1.91401 19.8252 2.00462 19.8252C2.10277 19.8252 2.21225 19.8252 2.33305 19.8252C2.83892 19.8252 3.20889 19.7308 3.44295 19.5421C3.67701 19.3458 3.79404 19.0777 3.79404 18.738ZM3.99789 21.9884C3.99789 21.626 3.85444 21.3579 3.56753 21.1843C3.28062 21.0106 2.88423 20.9238 2.37836 20.9238C2.3255 20.9238 2.22357 20.9238 2.07257 20.9238C1.92911 20.9238 1.81586 20.9276 1.73281 20.9351V23.0983C1.82341 23.1058 1.94799 23.1134 2.10655 23.1209C2.2651 23.1285 2.41233 23.1322 2.54824 23.1322C3.03146 23.1322 3.39387 23.0265 3.63548 22.8151C3.87709 22.6037 3.99789 22.3281 3.99789 21.9884Z" fill="white"/>
<path d="M10.3524 24.2988C10.3524 24.1704 10.3561 24.0081 10.3637 23.8118C10.3712 23.6155 10.3901 23.4418 10.4203 23.2908H10.409C10.2353 23.623 9.98994 23.8948 9.67283 24.1062C9.35571 24.3101 8.9631 24.412 8.49498 24.412C8.17787 24.412 7.90983 24.3667 7.69087 24.2761C7.47947 24.178 7.30958 24.0496 7.18123 23.891C7.05287 23.7249 6.95849 23.5362 6.89809 23.3248C6.84524 23.1058 6.81881 22.8718 6.81881 22.6226V18.67H8.25715V22.2715C8.25715 22.5584 8.30622 22.7849 8.40438 22.951C8.50253 23.1171 8.68751 23.2002 8.95932 23.2002C9.14053 23.2002 9.31041 23.1511 9.46897 23.053C9.62752 22.9548 9.76343 22.8265 9.87668 22.6679C9.99749 22.5018 10.0919 22.3093 10.1598 22.0903C10.2278 21.8713 10.2617 21.6373 10.2617 21.3881V18.67H11.7114V24.2988H10.3524Z" fill="white"/>
<path d="M16.7774 22.5433C16.7774 22.8227 16.717 23.0794 16.5962 23.3134C16.483 23.54 16.3169 23.7363 16.0979 23.9024C15.8789 24.0609 15.6147 24.1855 15.3051 24.2761C15.0031 24.3667 14.6671 24.412 14.2971 24.412C14.0782 24.412 13.8592 24.4007 13.6403 24.378C13.4213 24.3554 13.2212 24.3176 13.04 24.2648L13.142 23.053C13.3156 23.1285 13.5044 23.1851 13.7082 23.2228C13.9196 23.2606 14.131 23.2795 14.3424 23.2795C14.6143 23.2795 14.8332 23.2266 14.9993 23.1209C15.1654 23.0077 15.2485 22.8567 15.2485 22.6679C15.2485 22.5018 15.1919 22.3734 15.0786 22.2828C14.9653 22.1922 14.8219 22.1167 14.6482 22.0563C14.4821 21.9884 14.3009 21.9204 14.1046 21.8525C13.9083 21.7845 13.7233 21.6939 13.5497 21.5807C13.3836 21.4599 13.2439 21.3051 13.1306 21.1163C13.0174 20.92 12.9607 20.6633 12.9607 20.3462C12.9607 20.097 13.006 19.863 13.0967 19.644C13.1948 19.425 13.342 19.2363 13.5383 19.0777C13.7422 18.9116 13.9914 18.7833 14.2858 18.6927C14.5878 18.5945 14.9427 18.5454 15.3504 18.5454C15.509 18.5454 15.6789 18.5568 15.8601 18.5794C16.0413 18.5945 16.2111 18.6209 16.3697 18.6587L16.3018 19.7912C16.1507 19.7459 15.9846 19.712 15.8034 19.6893C15.6298 19.6591 15.4561 19.644 15.2825 19.644C14.9955 19.644 14.7841 19.6969 14.6482 19.8026C14.5199 19.9083 14.4557 20.0479 14.4557 20.2216C14.4557 20.3802 14.5123 20.5047 14.6256 20.5953C14.7388 20.6859 14.8823 20.7652 15.056 20.8332C15.2296 20.9011 15.4146 20.9729 15.6109 21.0484C15.8148 21.1163 16.0035 21.2107 16.1772 21.3315C16.3508 21.4523 16.4943 21.6071 16.6075 21.7958C16.7208 21.9846 16.7774 22.2338 16.7774 22.5433Z" fill="white"/>
<path d="M19.6313 16.9599C19.6313 17.2015 19.5407 17.4091 19.3595 17.5828C19.1859 17.7489 18.9745 17.8319 18.7253 17.8319C18.4761 17.8319 18.2647 17.7489 18.0911 17.5828C17.9174 17.4091 17.8306 17.2015 17.8306 16.9599C17.8306 16.7183 17.9174 16.5106 18.0911 16.337C18.2647 16.1633 18.4761 16.0765 18.7253 16.0765C18.9745 16.0765 19.1859 16.1633 19.3595 16.337C19.5407 16.5031 19.6313 16.7107 19.6313 16.9599ZM18.0005 24.2988V18.67H19.4501V24.2988H18.0005Z" fill="white"/>
<path d="M24.4631 24.2988V20.6973C24.4631 20.4104 24.414 20.1839 24.3158 20.0177C24.2177 19.8516 24.0327 19.7686 23.7609 19.7686C23.5797 19.7686 23.4098 19.8177 23.2512 19.9158C23.0927 20.014 22.953 20.1461 22.8322 20.3122C22.7189 20.4708 22.6283 20.6595 22.5604 20.8785C22.4924 21.0974 22.4585 21.3315 22.4585 21.5807V24.2988H21.0088V18.67H22.3792C22.3792 18.7984 22.3716 18.9607 22.3565 19.157C22.349 19.3533 22.3301 19.527 22.2999 19.678H22.3112C22.4849 19.3458 22.7303 19.0777 23.0474 18.8739C23.372 18.6625 23.7647 18.5568 24.2252 18.5568C24.5423 18.5568 24.8066 18.6058 25.018 18.704C25.237 18.7946 25.4106 18.923 25.539 19.0891C25.6673 19.2476 25.7579 19.4364 25.8108 19.6553C25.8712 19.8667 25.9014 20.097 25.9014 20.3462V24.2988H24.4631Z" fill="white"/>
<path d="M32.0884 20.9464C32.0884 21.0521 32.0846 21.1843 32.077 21.3428C32.0695 21.4938 32.0544 21.6335 32.0317 21.7619H28.5548C28.5548 22.2602 28.6756 22.6377 28.9172 22.8944C29.1664 23.1511 29.5628 23.2795 30.1064 23.2795C30.65 23.2795 31.1936 23.17 31.7373 22.951L31.8958 24.0496C31.5863 24.1629 31.254 24.2497 30.8992 24.3101C30.5519 24.378 30.2046 24.412 29.8572 24.412C28.9663 24.412 28.2792 24.1817 27.796 23.7212C27.3203 23.2606 27.0825 22.532 27.0825 21.5354C27.0825 21.1125 27.1429 20.7199 27.2637 20.3575C27.3845 19.9951 27.5582 19.6818 27.7847 19.4175C28.0187 19.1457 28.2981 18.9343 28.6228 18.7833C28.955 18.6323 29.3325 18.5568 29.7553 18.5568C30.163 18.5568 30.5141 18.6209 30.8086 18.7493C31.103 18.8701 31.3447 19.04 31.5334 19.2589C31.7222 19.4703 31.8618 19.7233 31.9525 20.0177C32.0431 20.3047 32.0884 20.6142 32.0884 20.9464ZM30.65 20.7992C30.6651 20.4141 30.5821 20.1234 30.4009 19.9271C30.2272 19.7233 29.9856 19.6214 29.676 19.6214C29.374 19.6214 29.1211 19.7271 28.9172 19.9385C28.7209 20.1423 28.6039 20.4292 28.5661 20.7992H30.65Z" fill="white"/>
<path d="M36.796 22.5433C36.796 22.8227 36.7356 23.0794 36.6148 23.3134C36.5016 23.54 36.3355 23.7363 36.1165 23.9024C35.8975 24.0609 35.6333 24.1855 35.3237 24.2761C35.0217 24.3667 34.6857 24.412 34.3158 24.412C34.0968 24.412 33.8778 24.4007 33.6589 24.378C33.4399 24.3554 33.2398 24.3176 33.0586 24.2648L33.1606 23.053C33.3342 23.1285 33.523 23.1851 33.7268 23.2228C33.9382 23.2606 34.1496 23.2795 34.3611 23.2795C34.6329 23.2795 34.8518 23.2266 35.0179 23.1209C35.184 23.0077 35.2671 22.8567 35.2671 22.6679C35.2671 22.5018 35.2105 22.3734 35.0972 22.2828C34.984 22.1922 34.8405 22.1167 34.6668 22.0563C34.5007 21.9884 34.3195 21.9204 34.1232 21.8525C33.9269 21.7845 33.7419 21.6939 33.5683 21.5807C33.4022 21.4599 33.2625 21.3051 33.1492 21.1163C33.036 20.92 32.9794 20.6633 32.9794 20.3462C32.9794 20.097 33.0247 19.863 33.1153 19.644C33.2134 19.425 33.3606 19.2363 33.5569 19.0777C33.7608 18.9116 34.01 18.7833 34.3044 18.6927C34.6064 18.5945 34.9613 18.5454 35.369 18.5454C35.5276 18.5454 35.6975 18.5568 35.8787 18.5794C36.0599 18.5945 36.2298 18.6209 36.3883 18.6587L36.3204 19.7912C36.1693 19.7459 36.0032 19.712 35.822 19.6893C35.6484 19.6591 35.4747 19.644 35.3011 19.644C35.0142 19.644 34.8027 19.6969 34.6668 19.8026C34.5385 19.9083 34.4743 20.0479 34.4743 20.2216C34.4743 20.3802 34.5309 20.5047 34.6442 20.5953C34.7574 20.6859 34.9009 20.7652 35.0746 20.8332C35.2482 20.9011 35.4332 20.9729 35.6295 21.0484C35.8334 21.1163 36.0221 21.2107 36.1958 21.3315C36.3694 21.4523 36.5129 21.6071 36.6261 21.7958C36.7394 21.9846 36.796 22.2338 36.796 22.5433Z" fill="white"/>
<path d="M41.5186 22.5433C41.5186 22.8227 41.4582 23.0794 41.3374 23.3134C41.2242 23.54 41.0581 23.7363 40.8391 23.9024C40.6202 24.0609 40.3559 24.1855 40.0463 24.2761C39.7443 24.3667 39.4083 24.412 39.0384 24.412C38.8194 24.412 38.6005 24.4007 38.3815 24.378C38.1625 24.3554 37.9625 24.3176 37.7812 24.2648L37.8832 23.053C38.0568 23.1285 38.2456 23.1851 38.4495 23.2228C38.6609 23.2606 38.8723 23.2795 39.0837 23.2795C39.3555 23.2795 39.5744 23.2266 39.7406 23.1209C39.9067 23.0077 39.9897 22.8567 39.9897 22.6679C39.9897 22.5018 39.9331 22.3734 39.8198 22.2828C39.7066 22.1922 39.5631 22.1167 39.3895 22.0563C39.2234 21.9884 39.0421 21.9204 38.8458 21.8525C38.6495 21.7845 38.4646 21.6939 38.2909 21.5807C38.1248 21.4599 37.9851 21.3051 37.8719 21.1163C37.7586 20.92 37.702 20.6633 37.702 20.3462C37.702 20.097 37.7473 19.863 37.8379 19.644C37.936 19.425 38.0833 19.2363 38.2796 19.0777C38.4834 18.9116 38.7326 18.7833 39.0271 18.6927C39.3291 18.5945 39.6839 18.5454 40.0916 18.5454C40.2502 18.5454 40.4201 18.5568 40.6013 18.5794C40.7825 18.5945 40.9524 18.6209 41.1109 18.6587L41.043 19.7912C40.892 19.7459 40.7259 19.712 40.5447 19.6893C40.371 19.6591 40.1973 19.644 40.0237 19.644C39.7368 19.644 39.5254 19.6969 39.3895 19.8026C39.2611 19.9083 39.1969 20.0479 39.1969 20.2216C39.1969 20.3802 39.2536 20.5047 39.3668 20.5953C39.4801 20.6859 39.6235 20.7652 39.7972 20.8332C39.9708 20.9011 40.1558 20.9729 40.3521 21.0484C40.556 21.1163 40.7447 21.2107 40.9184 21.3315C41.0921 21.4523 41.2355 21.6071 41.3488 21.7958C41.462 21.9846 41.5186 22.2338 41.5186 22.5433Z" fill="white"/>
<path d="M50.8297 21.9431C50.8297 22.2375 50.773 22.5282 50.6598 22.8151C50.5541 23.0945 50.3766 23.3474 50.1275 23.5739C49.8859 23.8004 49.5688 23.9816 49.1761 24.1176C48.7835 24.2535 48.3079 24.3214 47.7491 24.3214C47.4924 24.3214 47.1753 24.3176 46.7978 24.3101C46.4278 24.3025 46.0013 24.2988 45.518 24.2988V16.6654C45.8427 16.6503 46.2278 16.639 46.6732 16.6314C47.1262 16.6163 47.5868 16.6088 48.0549 16.6088C48.8779 16.6088 49.5084 16.7711 49.9463 17.0958C50.3917 17.4204 50.6145 17.8886 50.6145 18.5001C50.6145 18.8852 50.5126 19.2287 50.3087 19.5308C50.1124 19.8328 49.8293 20.0593 49.4593 20.2103V20.2329C49.867 20.316 50.1954 20.5161 50.4446 20.8332C50.7013 21.1503 50.8297 21.5203 50.8297 21.9431ZM49.0516 18.738C49.0516 18.4511 48.9572 18.2208 48.7684 18.0471C48.5872 17.8735 48.2701 17.7866 47.8171 17.7866C47.6585 17.7866 47.5113 17.7904 47.3754 17.798C47.2395 17.798 47.1111 17.8017 46.9903 17.8093V19.8139C47.0809 19.8214 47.1715 19.8252 47.2621 19.8252C47.3603 19.8252 47.4698 19.8252 47.5906 19.8252C48.0965 19.8252 48.4664 19.7308 48.7005 19.5421C48.9345 19.3458 49.0516 19.0777 49.0516 18.738ZM49.2554 21.9884C49.2554 21.626 49.112 21.3579 48.8251 21.1843C48.5381 21.0106 48.1418 20.9238 47.6359 20.9238C47.583 20.9238 47.4811 20.9238 47.3301 20.9238C47.1866 20.9238 47.0734 20.9276 46.9903 20.9351V23.0983C47.0809 23.1058 47.2055 23.1134 47.3641 23.1209C47.5226 23.1285 47.6699 23.1322 47.8058 23.1322C48.289 23.1322 48.6514 23.0265 48.893 22.8151C49.1346 22.6037 49.2554 22.3281 49.2554 21.9884Z" fill="white"/>
<path d="M55.0889 24.2988C55.0889 24.1327 55.0927 23.9703 55.1002 23.8118C55.1078 23.6532 55.1229 23.4984 55.1455 23.3474L55.1342 23.3361C54.9983 23.6532 54.768 23.9137 54.4434 24.1176C54.1263 24.3139 53.7563 24.412 53.3335 24.412C52.8201 24.412 52.4237 24.261 52.1443 23.959C51.8649 23.6494 51.7253 23.2644 51.7253 22.8038C51.7253 22.4716 51.8008 22.1847 51.9518 21.9431C52.1103 21.6939 52.3293 21.4901 52.6086 21.3315C52.8956 21.1654 53.2391 21.0446 53.6393 20.9691C54.0394 20.886 54.4849 20.8445 54.9757 20.8445V20.6406C54.9757 20.3009 54.9002 20.0517 54.7492 19.8932C54.6057 19.7346 54.3452 19.6553 53.9677 19.6553C53.711 19.6553 53.4241 19.6931 53.107 19.7686C52.7974 19.8441 52.518 19.9347 52.2689 20.0404L52.031 18.9305C52.318 18.8172 52.6464 18.7266 53.0164 18.6587C53.3939 18.5832 53.7752 18.5454 54.1602 18.5454C54.5981 18.5454 54.9606 18.5907 55.2475 18.6813C55.5419 18.7644 55.776 18.8928 55.9496 19.0664C56.1233 19.2325 56.2441 19.4401 56.3121 19.6893C56.3876 19.9309 56.4253 20.2103 56.4253 20.5274V22.8491C56.4253 23.0756 56.4291 23.3172 56.4366 23.5739C56.4442 23.8231 56.4555 24.0647 56.4706 24.2988H55.0889ZM54.9757 21.7958C54.6132 21.7958 54.3112 21.8185 54.0696 21.8638C53.828 21.9015 53.6355 21.9582 53.492 22.0337C53.3561 22.1092 53.258 22.1998 53.1976 22.3055C53.1447 22.4112 53.1183 22.5244 53.1183 22.6452C53.1183 22.8265 53.1787 22.9812 53.2995 23.1096C53.4203 23.2379 53.5864 23.3021 53.7978 23.3021C53.9715 23.3021 54.13 23.2644 54.2735 23.1889C54.4245 23.1058 54.5491 23.0039 54.6472 22.8831C54.7529 22.7547 54.8322 22.6113 54.8851 22.4527C54.9455 22.2866 54.9757 22.1167 54.9757 21.9431V21.7958Z" fill="white"/>
<path d="M61.4698 24.2988V20.6973C61.4698 20.4104 61.4207 20.1839 61.3226 20.0177C61.2244 19.8516 61.0395 19.7686 60.7677 19.7686C60.5864 19.7686 60.4166 19.8177 60.258 19.9158C60.0994 20.014 59.9598 20.1461 59.839 20.3122C59.7257 20.4708 59.6351 20.6595 59.5672 20.8785C59.4992 21.0974 59.4652 21.3315 59.4652 21.5807V24.2988H58.0156V18.67H59.3859C59.3859 18.7984 59.3784 18.9607 59.3633 19.157C59.3557 19.3533 59.3369 19.527 59.3067 19.678H59.318C59.4916 19.3458 59.737 19.0777 60.0541 18.8739C60.3788 18.6625 60.7714 18.5568 61.232 18.5568C61.5491 18.5568 61.8134 18.6058 62.0248 18.704C62.2437 18.7946 62.4174 18.923 62.5457 19.0891C62.6741 19.2476 62.7647 19.4364 62.8176 19.6553C62.878 19.8667 62.9082 20.097 62.9082 20.3462V24.2988H61.4698Z" fill="white"/>
<path d="M67.6795 24.2988L65.9353 21.5127V24.2988H64.4857V16.0312H65.9353V21.0144L67.5775 18.67H69.3443L67.3737 21.2409L69.4915 24.2988H67.6795Z" fill="white"/>
<path d="M72.0447 16.9599C72.0447 17.2015 71.9541 17.4091 71.7729 17.5828C71.5992 17.7489 71.3878 17.8319 71.1387 17.8319C70.8895 17.8319 70.6781 17.7489 70.5044 17.5828C70.3308 17.4091 70.2439 17.2015 70.2439 16.9599C70.2439 16.7183 70.3308 16.5106 70.5044 16.337C70.6781 16.1633 70.8895 16.0765 71.1387 16.0765C71.3878 16.0765 71.5992 16.1633 71.7729 16.337C71.9541 16.5031 72.0447 16.7107 72.0447 16.9599ZM70.4138 24.2988V18.67H71.8635V24.2988H70.4138Z" fill="white"/>
<path d="M76.8764 24.2988V20.6973C76.8764 20.4104 76.8273 20.1839 76.7292 20.0177C76.631 19.8516 76.446 19.7686 76.1742 19.7686C75.993 19.7686 75.8232 19.8177 75.6646 19.9158C75.506 20.014 75.3664 20.1461 75.2456 20.3122C75.1323 20.4708 75.0417 20.6595 74.9737 20.8785C74.9058 21.0974 74.8718 21.3315 74.8718 21.5807V24.2988H73.4222V18.67H74.7925C74.7925 18.7984 74.785 18.9607 74.7699 19.157C74.7623 19.3533 74.7435 19.527 74.7133 19.678H74.7246C74.8982 19.3458 75.1436 19.0777 75.4607 18.8739C75.7854 18.6625 76.178 18.5568 76.6386 18.5568C76.9557 18.5568 77.22 18.6058 77.4314 18.704C77.6503 18.7946 77.824 18.923 77.9523 19.0891C78.0807 19.2476 78.1713 19.4364 78.2241 19.6553C78.2845 19.8667 78.3148 20.097 78.3148 20.3462V24.2988H76.8764Z" fill="white"/>
<path d="M85 24.899C85 25.201 84.9245 25.4879 84.7735 25.7597C84.6301 26.0316 84.4224 26.2694 84.1506 26.4732C83.8864 26.6771 83.5617 26.8394 83.1766 26.9602C82.7991 27.081 82.3763 27.1414 81.9082 27.1414C81.1532 27.1414 80.5605 26.998 80.1301 26.7111C79.7073 26.4317 79.4959 26.0165 79.4959 25.4653C79.4959 25.1708 79.5827 24.899 79.7563 24.6499C79.93 24.4007 80.1339 24.2119 80.3679 24.0836C80.1943 24.0005 80.0584 23.8873 79.9602 23.7438C79.8621 23.5928 79.813 23.4192 79.813 23.2228C79.813 23.0039 79.8734 22.8038 79.9942 22.6226C80.1225 22.4338 80.2849 22.2979 80.4812 22.2149C80.2169 22.0714 80.0093 21.8713 79.8583 21.6146C79.7148 21.3579 79.6431 21.0446 79.6431 20.6746C79.6431 20.3953 79.696 20.1272 79.8017 19.8705C79.9074 19.6063 80.0621 19.3797 80.266 19.191C80.4774 18.9947 80.7379 18.8399 81.0474 18.7266C81.357 18.6058 81.7157 18.5454 82.1234 18.5454C82.3046 18.5454 82.4631 18.5568 82.599 18.5794C82.7425 18.6021 82.8897 18.6323 83.0407 18.67H84.9547V19.8026H84.1846C84.3734 19.9762 84.4677 20.2141 84.4677 20.5161C84.4677 20.8181 84.4149 21.0937 84.3092 21.3428C84.211 21.592 84.06 21.8072 83.8562 21.9884C83.6599 22.162 83.4107 22.2979 83.1087 22.3961C82.8067 22.4942 82.4556 22.5433 82.0554 22.5433C81.9044 22.5433 81.7572 22.5282 81.6137 22.498C81.5231 22.5358 81.4552 22.5886 81.4099 22.6566C81.3646 22.7245 81.3419 22.7925 81.3419 22.8604C81.3419 22.9888 81.4023 23.0756 81.5231 23.1209C81.6515 23.1662 81.8818 23.1964 82.214 23.2115L83.086 23.2455C83.6976 23.2681 84.1695 23.4154 84.5017 23.6872C84.8339 23.9514 85 24.3554 85 24.899ZM83.086 20.5953C83.086 20.2933 82.9992 20.0517 82.8255 19.8705C82.6594 19.6893 82.4065 19.5987 82.0667 19.5987C81.7345 19.5987 81.4778 19.6931 81.2966 19.8818C81.1154 20.063 81.0248 20.2971 81.0248 20.584C81.0248 20.886 81.1116 21.1239 81.2853 21.2975C81.4665 21.4712 81.727 21.558 82.0667 21.558C82.3839 21.558 82.633 21.475 82.8142 21.3088C82.9954 21.1352 83.086 20.8974 83.086 20.5953ZM83.5617 25.0915C83.5617 24.8877 83.4937 24.7178 83.3578 24.5819C83.2219 24.4535 82.9954 24.3818 82.6783 24.3667L81.7043 24.3327H81.4438C81.2777 24.4535 81.1494 24.5857 81.0588 24.7291C80.9682 24.8801 80.9229 25.0349 80.9229 25.1935C80.9229 25.4577 81.0323 25.6616 81.2513 25.805C81.4703 25.9561 81.761 26.0316 82.1234 26.0316C82.599 26.0316 82.9577 25.941 83.1993 25.7597C83.4409 25.5785 83.5617 25.3558 83.5617 25.0915Z" fill="white"/>
<path d="M4.46222 2.88799H5.95718V10.0117C5.95718 11.2046 5.68915 12.0805 5.15308 12.6392C4.62456 13.1979 3.88085 13.4773 2.92196 13.4773C2.46895 13.4773 2.06123 13.4169 1.69882 13.2961C1.3364 13.1753 1.03062 12.9827 0.781456 12.7185C0.532296 12.4618 0.339763 12.1296 0.203858 11.7218C0.0679527 11.3141 0 10.8271 0 10.2609C0 9.92864 0.0226509 9.59265 0.0679527 9.25289C0.113254 8.90557 0.181207 8.56581 0.271811 8.2336L1.81207 7.95046C1.70637 8.31288 1.62709 8.67906 1.57424 9.04903C1.52138 9.41899 1.49496 9.77763 1.49496 10.1249C1.49496 10.5553 1.53649 10.9102 1.61954 11.1895C1.71014 11.4764 1.82717 11.703 1.97063 11.8691C2.11408 12.0352 2.28019 12.1484 2.46895 12.2088C2.6577 12.2768 2.85024 12.3108 3.04654 12.3108C3.2504 12.3108 3.43916 12.273 3.61282 12.1975C3.78647 12.1295 3.9337 12.0087 4.05451 11.8351C4.18286 11.669 4.28102 11.4462 4.34897 11.1669C4.42447 10.8875 4.46222 10.5402 4.46222 10.1249V2.88799Z" fill="white"/>
<path d="M7.9317 2.88799H9.42666V9.69458H10.5592V10.8724H7.9317V2.88799Z" fill="white"/>
<path d="M10.4998 9.69458H11.8476V10.8724H10.4998V9.69458Z" fill="white"/>
<path d="M11.8407 9.69458H13.1885V10.8724H11.8407V9.69458Z" fill="white"/>
<path d="M13.1817 9.69458H14.5294V10.8724H13.1817V9.69458Z" fill="white"/>
<path d="M14.5226 9.69458H15.8703V10.8724H14.5226V9.69458Z" fill="white"/>
<path d="M19.8614 10.8724C19.1894 10.8724 18.676 10.7969 18.3211 10.6459C17.9663 10.4949 17.702 10.2797 17.5283 10.0004C17.3849 10.2948 17.1848 10.5138 16.9281 10.6572C16.6714 10.8007 16.3731 10.8724 16.0334 10.8724H15.8635V9.69458H16.09C16.3618 9.69458 16.5694 9.59643 16.7129 9.40012C16.8639 9.20381 16.9394 8.84895 16.9394 8.33553C16.9394 7.92781 16.9998 7.54652 17.1206 7.19166C17.2414 6.83679 17.4226 6.52723 17.6642 6.26297C17.9134 5.99871 18.2154 5.79108 18.5703 5.64007C18.9327 5.48151 19.3517 5.40224 19.8274 5.40224C20.2804 5.40224 20.673 5.46641 21.0052 5.59477C21.3375 5.71557 21.6093 5.89301 21.8207 6.12706C22.0321 6.36112 22.1869 6.64426 22.285 6.97647C22.3907 7.30869 22.4436 7.68243 22.4436 8.09769V9.69458H23.4062V10.8724H19.8614ZM20.9826 8.26757C20.9826 7.6711 20.8769 7.24073 20.6655 6.97647C20.4541 6.71221 20.1407 6.58008 19.7255 6.58008C19.3102 6.58008 18.9855 6.73109 18.7515 7.0331C18.525 7.32756 18.4117 7.7164 18.4117 8.19962C18.4117 8.69794 18.5287 9.07168 18.7628 9.32084C19.0044 9.57 19.4197 9.69458 20.0086 9.69458H20.9826V8.26757Z" fill="white"/>
<path d="M23.3427 9.69458H24.6904V10.8724H23.3427V9.69458Z" fill="white"/>
<path d="M24.6836 9.69458H26.0314V10.8724H24.6836V9.69458Z" fill="white"/>
<path d="M26.0245 9.69458H27.3723V10.8724H26.0245V9.69458Z" fill="white"/>
<path d="M27.3655 9.69458H28.7132V10.8724H27.3655V9.69458Z" fill="white"/>
<path d="M28.7064 9.69458H30.4392C30.19 9.54357 29.9786 9.32084 29.8049 9.02638C29.6388 8.73192 29.5558 8.39215 29.5558 8.00709C29.5558 7.65977 29.6162 7.32756 29.737 7.01045C29.8578 6.69334 30.039 6.41775 30.2806 6.18369C30.5298 5.94208 30.8393 5.75333 31.2093 5.61742C31.5868 5.47396 32.0247 5.40224 32.523 5.40224C32.7118 5.40224 32.8892 5.41356 33.0553 5.43621C33.229 5.45886 33.38 5.48529 33.5084 5.51549C33.6594 5.54569 33.799 5.57967 33.9274 5.61742L33.6669 6.80659C33.5688 6.76129 33.4555 6.72354 33.3272 6.69334C33.2214 6.66314 33.0969 6.63671 32.9534 6.61406C32.81 6.58386 32.6552 6.56876 32.4891 6.56876C32.0587 6.56876 31.7114 6.70089 31.4471 6.96515C31.1904 7.22186 31.0621 7.56917 31.0621 8.00709C31.0621 8.2487 31.1111 8.47143 31.2093 8.67529C31.3074 8.87915 31.4622 9.05658 31.6736 9.20759C31.885 9.35859 32.1531 9.4794 32.4777 9.57C32.8024 9.65305 33.1875 9.69458 33.6329 9.69458H34.5163V10.8724H28.7064V9.69458Z" fill="white"/>
<path d="M35.2052 1.59689C35.3411 1.59689 35.4657 1.60066 35.579 1.60821C35.6998 1.61576 35.7979 1.62709 35.8734 1.64219C35.813 1.60444 35.764 1.54404 35.7262 1.46098C35.6884 1.37038 35.6696 1.28355 35.6696 1.2005C35.6696 1.04194 35.696 0.890935 35.7488 0.747479C35.8092 0.604024 35.8999 0.475669 36.0207 0.362414C36.149 0.24916 36.3151 0.162332 36.519 0.101929C36.7228 0.0339763 36.972 0 37.2665 0C37.4175 0 37.5571 0.0075502 37.6855 0.0226506C37.8139 0.0302012 37.8969 0.0415268 37.9347 0.0566272L37.7988 0.838083C37.7686 0.830533 37.7006 0.819207 37.5949 0.804106C37.4892 0.789006 37.3722 0.781456 37.2438 0.781456C37.0626 0.781456 36.9229 0.819207 36.8248 0.89471C36.7342 0.962663 36.6889 1.05327 36.6889 1.16652C36.6889 1.29488 36.7455 1.40058 36.8587 1.48363C36.9795 1.55914 37.1872 1.59689 37.4816 1.59689H38.1272V2.37834H35.2052V1.59689ZM35.998 3.08052H37.493V10.8724H35.998V3.08052Z" fill="white"/>
<path d="M41.9201 9.70591C42.1164 9.70591 42.3051 9.71346 42.4863 9.72856C42.6751 9.73611 42.8337 9.75121 42.962 9.77386C42.8337 9.71346 42.7355 9.6153 42.6675 9.4794C42.5996 9.33594 42.5656 9.17738 42.5656 9.00373C42.5656 8.76967 42.6109 8.53938 42.7015 8.31288C42.7921 8.07882 42.9356 7.87496 43.1319 7.7013C43.3282 7.52765 43.5811 7.38796 43.8907 7.28226C44.2003 7.16901 44.5778 7.11238 45.0232 7.11238C45.2497 7.11238 45.4612 7.1237 45.6575 7.14636C45.8538 7.16146 45.9821 7.17656 46.0425 7.19166L45.8613 8.3695C45.8085 8.3544 45.6952 8.33553 45.5216 8.31288C45.3479 8.29023 45.1591 8.2789 44.9553 8.2789C44.6608 8.2789 44.4381 8.34308 44.2871 8.47143C44.1361 8.59224 44.0606 8.75079 44.0606 8.9471C44.0606 9.16606 44.155 9.34727 44.3437 9.49072C44.54 9.63418 44.876 9.70591 45.3517 9.70591H46.3596V10.8724H41.9201V9.70591Z" fill="white"/>
<path d="M48.0946 2.88799H49.5895V9.69458H50.7221V10.8724H48.0946V2.88799Z" fill="white"/>
<path d="M50.6627 9.69458H52.0104V10.8724H50.6627V9.69458Z" fill="white"/>
<path d="M52.0036 9.69458H53.3513V10.8724H52.0036V9.69458Z" fill="white"/>
<path d="M53.3445 9.69458H54.6922V10.8724H53.3445V9.69458Z" fill="white"/>
<path d="M54.6854 9.69458H56.0332V10.8724H54.6854V9.69458Z" fill="white"/>
<path d="M56.0263 9.69458H57.3741V10.8724H56.0263V9.69458Z" fill="white"/>
<path d="M61.3651 10.8724C60.6932 10.8724 60.1797 10.7969 59.8249 10.6459C59.47 10.4949 59.2058 10.2797 59.0321 10.0004C58.8886 10.2948 58.6886 10.5138 58.4319 10.6572C58.1751 10.8007 57.8769 10.8724 57.5371 10.8724H57.3673V9.69458H57.5938C57.8656 9.69458 58.0732 9.59643 58.2167 9.40012C58.3677 9.20381 58.4432 8.84895 58.4432 8.33553C58.4432 7.92781 58.5036 7.54652 58.6244 7.19166C58.7452 6.83679 58.9264 6.52723 59.168 6.26297C59.4172 5.99871 59.7192 5.79108 60.074 5.64007C60.4365 5.48151 60.8555 5.40224 61.3312 5.40224C61.7842 5.40224 62.1768 5.46641 62.509 5.59477C62.8412 5.71557 63.113 5.89301 63.3244 6.12706C63.5359 6.36112 63.6906 6.64426 63.7888 6.97647C63.8945 7.30869 63.9473 7.68243 63.9473 8.09769V9.69458H64.91V10.8724H61.3651ZM62.4864 8.26757C62.4864 7.6711 62.3807 7.24073 62.1693 6.97647C61.9578 6.71221 61.6445 6.58008 61.2292 6.58008C60.814 6.58008 60.4893 6.73109 60.2553 7.0331C60.0287 7.32756 59.9155 7.7164 59.9155 8.19962C59.9155 8.69794 60.0325 9.07168 60.2666 9.32084C60.5082 9.57 60.9235 9.69458 61.5124 9.69458H62.4864V8.26757Z" fill="white"/>
<path d="M64.8465 9.69458H66.1942V10.8724H64.8465V9.69458Z" fill="white"/>
<path d="M66.1874 9.69458H67.5351V10.8724H66.1874V9.69458Z" fill="white"/>
<path d="M67.5283 9.69458H68.876V10.8724H67.5283V9.69458Z" fill="white"/>
<path d="M68.8692 9.69458H70.2169V10.8724H68.8692V9.69458Z" fill="white"/>
<path d="M70.2101 9.69458H71.7957V5.54947H73.2907V10.8724H70.2101V9.69458ZM72.5432 4.59813C72.3242 4.59813 72.1392 4.52263 71.9882 4.37162C71.8372 4.22062 71.7617 4.03563 71.7617 3.81667C71.7617 3.59772 71.8372 3.41273 71.9882 3.26173C72.1392 3.11072 72.3242 3.03522 72.5432 3.03522C72.7621 3.03522 72.9471 3.11072 73.0981 3.26173C73.2491 3.41273 73.3246 3.59772 73.3246 3.81667C73.3246 4.03563 73.2491 4.22062 73.0981 4.37162C72.9471 4.52263 72.7621 4.59813 72.5432 4.59813Z" fill="white"/>
<path d="M77.7269 8.84517H76.2093L74.5897 3.01257L76.0734 2.80871L77.7269 8.84517ZM75.0541 10.8724V9.69458H78.5536V2.88799H80.0486V10.8724H75.0541ZM75.1673 13.0809C75.273 13.0809 75.3712 13.0847 75.4618 13.0922C75.5599 13.0998 75.6468 13.1111 75.7223 13.1262C75.6845 13.0884 75.6505 13.0356 75.6203 12.9676C75.5901 12.9072 75.575 12.8355 75.575 12.7524C75.575 12.6014 75.6052 12.4542 75.6656 12.3108C75.726 12.1749 75.8204 12.0503 75.9488 11.937C76.0771 11.8313 76.2395 11.7445 76.4358 11.6765C76.6396 11.6161 76.8775 11.5859 77.1493 11.5859C77.3003 11.5859 77.44 11.5897 77.5683 11.5973C77.6967 11.6124 77.7797 11.6275 77.8175 11.6426L77.6816 12.458C77.6438 12.4504 77.5721 12.4391 77.4664 12.424C77.3682 12.4089 77.2588 12.4014 77.1379 12.4014C76.9794 12.4014 76.8548 12.4316 76.7642 12.492C76.6812 12.5524 76.6396 12.6316 76.6396 12.7298C76.6396 12.8431 76.6925 12.9299 76.7982 12.9903C76.9039 13.0507 77.0889 13.0809 77.3531 13.0809H78.0213V13.9076H75.1673V13.0809Z" fill="white"/>
<path d="M82.0722 2.88799H83.5672V10.8724H82.0722V2.88799Z" fill="white"/>
</svg>
